<svg xmlns="http://www.w3.org/2000/svg" xmlns:xlink="http://www.w3.org/1999/xlink" version="1.1" x="0px" y="0px" viewBox="0 0 512 640" style="enable-background:new 0 0 512 512;" xml:space="preserve"><g><g><g><path d="M256.104,0C148.61,0,61.161,87.452,61.161,194.943C61.161,296.086,149.793,439.648,256,512     c106.208-72.352,194.839-215.912,194.839-317.057C450.839,87.452,363.48,0,256.104,0z M256.159,359.154     c-91.828,0-166.536-74.706-166.536-166.533c0-91.655,74.708-166.221,166.536-166.221c91.655,0,166.219,74.566,166.219,166.221     C422.378,284.448,347.814,359.154,256.159,359.154z"/></g><path fill='#339966' d="M353.065,247.373H313.09c-1.647-0.94-3.4-1.664-5.215-2.161c-1.916-0.703-3.946-1.072-6.01-1.072    c-2.062,0-4.093,0.369-6.005,1.069c-1.816,0.5-3.572,1.223-5.219,2.163h-60.815c-1.645-0.94-3.397-1.664-5.214-2.161    c-1.912-0.703-3.944-1.072-6.008-1.072s-4.096,0.369-6.008,1.072c-1.816,0.497-3.569,1.221-5.216,2.161h-24.985    c-4.843,0-8.786-3.942-8.786-8.786c0-4.846,3.943-8.788,8.786-8.788h153.604c1.432,0,2.592-1.16,2.592-2.589    c0-1.434-1.16-2.595-2.592-2.595h-9.846l7.026-15.551h-99.036c-1.434,0-2.594-1.161-2.594-2.59c0-1.434,1.16-2.594,2.594-2.594    h101.378l7.028-15.551h-99.316c-1.429,0-2.589-1.161-2.589-2.591c0-1.432,1.16-2.594,2.589-2.594h101.659l18.739-41.47H193.377    v-28.804c0-1.075-0.663-2.038-1.667-2.421l-39.822-15.259c-1.336-0.511-2.836,0.157-3.348,1.492    c-0.51,1.338,0.156,2.835,1.493,3.35l38.159,14.62v27.021v33.776v49.166h-5.797c-7.701,0-13.972,6.269-13.972,13.972    c0,7.703,6.271,13.968,13.972,13.968h21.272c-1.62,2.678-2.517,5.777-2.517,9.038c0,9.623,7.828,17.452,17.453,17.452    s17.453-7.829,17.453-17.452c0-3.261-0.896-6.36-2.519-9.038h53.39c-1.621,2.678-2.514,5.777-2.514,9.038    c0,9.623,7.828,17.452,17.45,17.452c9.623,0,17.453-7.829,17.453-17.452c0-3.261-0.895-6.36-2.517-9.038h36.264    c1.434,0,2.594-1.16,2.594-2.591S354.499,247.373,353.065,247.373z M218.604,266.088c-2.48,0-4.494-2.012-4.494-4.494    c0-1.615,0.856-3.031,2.139-3.824c0.684-0.423,1.49-0.666,2.355-0.666c0.863,0,1.67,0.243,2.354,0.666    c1.284,0.793,2.139,2.209,2.139,3.824C223.097,264.076,221.085,266.088,218.604,266.088z M301.865,266.088    c-2.482,0-4.491-2.012-4.491-4.494c0-1.615,0.854-3.031,2.136-3.824c0.685-0.423,1.493-0.666,2.355-0.666    c0.866,0,1.672,0.243,2.358,0.666c1.282,0.793,2.136,2.209,2.136,3.824C306.359,264.076,304.346,266.088,301.865,266.088z"/></g></g><text x="0" y="527" fill="#000000" font-size="5px" font-weight="bold" font-family="'Helvetica Neue', Helvetica, Arial-Unicode, Arial, Sans-serif">Created by Flatart</text><text x="0" y="532" fill="#000000" font-size="5px" font-weight="bold" font-family="'Helvetica Neue', Helvetica, Arial-Unicode, Arial, Sans-serif">from the Noun Project</text></svg>
