<svg xmlns="http://www.w3.org/2000/svg" xmlns:xlink="http://www.w3.org/1999/xlink" version="1.1" x="0px" y="0px" viewBox="0 0 512 640" enable-background="new 0 0 512 512" xml:space="preserve"><g><path fill='#339966' d="M256,0C139.167,0,44.467,94.708,44.467,211.533C44.467,372.184,256,512,256,512s211.533-139.816,211.533-300.467   C467.533,94.708,372.833,0,256,0z M256,375.941c-90.8,0-164.4-73.6-164.4-164.408c0-90.8,73.601-164.408,164.4-164.408   s164.417,73.608,164.417,164.408C420.417,302.342,346.8,375.941,256,375.941z"/><polygon points="292.458,240.583 266.292,270.684 292.458,300.767 292.458,286.066 327.774,286.066 357.816,256.033    357.816,255.967 292.458,255.967  "/><polygon points="317.958,247.467 352.7,247.467 318.509,188.233 292.45,203.283  "/><polygon points="296.134,183.383 309.108,145.684 296.375,153.033 278.708,122.467 237.675,111.45 237.633,111.483    270.308,168.083 256.975,175.783  "/><polygon points="250.2,150.267 232.816,120.167 198.625,179.4 224.691,194.45  "/><polygon points="218.6,238.917 205.616,201.184 166.475,208.8 179.208,216.167 161.55,246.75 172.55,287.8 172.592,287.816    205.267,231.217  "/><polygon points="182.517,287.65 250.9,287.65 250.9,257.533 199.892,257.533  "/></g><text x="0" y="527" fill="#000000" font-size="5px" font-weight="bold" font-family="'Helvetica Neue', Helvetica, Arial-Unicode, Arial, Sans-serif">Created by lastspark</text><text x="0" y="532" fill="#000000" font-size="5px" font-weight="bold" font-family="'Helvetica Neue', Helvetica, Arial-Unicode, Arial, Sans-serif">from the Noun Project</text></svg>
